<svg xmlns="http://www.w3.org/2000/svg" aria-hidden="true" style="position:absolute;width:0;height:0;overflow:hidden"><defs><symbol id="icon-person" viewBox="0 0 32 32"><path fill="#4d5ae5" d="M16 16a8 8 0 0 0 0-16 8 8 0 0 0 0 16zm0 4c-5.339 0-16 2.68-16 8v2c0 1.099.901 2 2 2h28c1.099 0 2-.901 2-2v-2c0-5.32-10.661-8-16-8z" style="fill:var(--color1, #4d5ae5)"/></symbol><symbol id="icon-email" viewBox="0 0 43 32"><path d="M37.333 0h-32c-2.2 0-3.981 1.8-3.981 4l-.019 24c0 2.2 1.8 4 4 4h32c2.2 0 4-1.8 4-4V4c0-2.2-1.8-4-4-4zm-.8 8.501-14.139 8.837a2.02 2.02 0 0 1-2.129-.005l.009.005-14.141-8.84A1.7 1.7 0 1 1 7.94 5.621l-.006-.004 13.4 8.381 13.4-8.381a1.7 1.7 0 1 1 1.808 2.876l-.008.004z"/></symbol><symbol id="icon-phone" viewBox="0 0 32 32"><path d="m28.864 21.822-4.524-.517a3.534 3.534 0 0 0-2.922 1.017l-3.276 3.276c-5.081-2.621-9.119-6.659-11.671-11.59l-.07-.149 3.298-3.296a3.531 3.531 0 0 0 1.012-2.937l.002.017-.517-4.49A3.568 3.568 0 0 0 6.655 0H3.569C1.555 0-.118 1.674.007 3.687c.943 15.212 13.11 27.362 28.305 28.308 2.014.123 3.687-1.551 3.687-3.564v-3.102a3.53 3.53 0 0 0-3.12-3.506l-.016-.002z"/></symbol><symbol id="icon-send" viewBox="0 0 38 32"><path fill="#fff" d="M38.4 0 0 18l12.272 3.787L31.2 7 16.803 23.186l.011.005-.014-.005V32l6.882-6.691L32.402 28 38.4 0z" style="fill:var(--color2, #fff)"/></symbol><symbol id="icon-check" viewBox="0 0 40 32"><path fill="#f4f4fd" d="M33.84 1.96a3.648 3.648 0 0 1 2.396-.892h.046-.002.003c.932 0 1.783.349 2.429.923l-.004-.003a3.116 3.116 0 0 1 1.048 2.218v.006l.001.067c0 .861-.352 1.64-.92 2.201l-18.62 21.496a3.498 3.498 0 0 1-1.113.743l-.023.009a3.688 3.688 0 0 1-1.418.279 3.737 3.737 0 0 1-2.489-.946l.004.003-12.348-11.4a3.273 3.273 0 0 1-.804-1.029l-.009-.019a2.982 2.982 0 0 1-.308-1.329c0-.903.396-1.714 1.024-2.268l.003-.003a3.536 3.536 0 0 1 1.144-.704l.024-.008c.39-.15.841-.236 1.312-.236.514 0 1.003.103 1.449.289l-.025-.009c.441.183.819.436 1.136.748l9.772 9.016 16.208-19.06a.977.977 0 0 1 .091-.091l.001-.001h-.008z" style="fill:var(--color3, #f4f4fd)"/></symbol></defs></svg>